<svg id="visual" viewBox="0 0 900 600" width="900" height="600" xmlns="http://www.w3.org/2000/svg" xmlns:xlink="http://www.w3.org/1999/xlink" version="1.1"><path d="M0 375L37.5 376.8C75 378.7 150 382.3 225 396.8C300 411.3 375 436.7 450 459.2C525 481.7 600 501.3 675 494.8C750 488.3 825 455.7 862.5 439.3L900 423L900 601L862.5 601C825 601 750 601 675 601C600 601 525 601 450 601C375 601 300 601 225 601C150 601 75 601 37.5 601L0 601Z" fill="#ffffff" stroke-linecap="round" stroke-linejoin="miter"></path></svg>